<?xml version="1.0" standalone="no"?>
<!DOCTYPE svg PUBLIC "-//W3C//DTD SVG 20010904//EN"
 "http://www.w3.org/TR/2001/REC-SVG-20010904/DTD/svg10.dtd">
<svg version="1.0" xmlns="http://www.w3.org/2000/svg"
 width="832.000000pt" height="158.000000pt" viewBox="0 0 832.000000 158.000000"
 preserveAspectRatio="xMidYMid meet">

<g transform="translate(0.000000,158.000000) scale(0.100000,-0.100000)"
fill="#000000" stroke="none">
<path d="M1200 1475 l0 -95 95 0 95 0 0 95 0 95 -95 0 -95 0 0 -95z"/>
<path d="M1800 1475 l0 -95 95 0 95 0 0 95 0 95 -95 0 -95 0 0 -95z"/>
<path d="M4850 1265 l0 -305 95 0 95 0 0 -330 0 -330 95 0 95 0 0 330 0 329
-92 3 -93 3 -3 303 -2 302 -95 0 -95 0 0 -305z"/>
<path d="M5630 1475 l0 -95 95 0 95 0 0 95 0 95 -95 0 -95 0 0 -95z"/>
<path d="M2 921 c3 -306 4 -321 24 -348 30 -40 81 -72 126 -79 l38 -7 0 -93 0
-94 210 0 210 0 0 93 0 92 50 12 c61 15 104 44 128 86 15 28 17 71 20 345 l4
312 -101 0 -101 0 0 -375 0 -375 -207 2 -208 3 -3 373 -2 372 -96 0 -95 0 3
-319z"/>
<path d="M1200 770 l0 -470 95 0 95 0 0 470 0 470 -95 0 -95 0 0 -470z"/>
<path d="M1798 723 l-3 -518 -92 -3 -93 -3 0 -94 0 -95 95 0 95 0 0 95 0 95
95 0 95 0 0 520 0 520 -95 0 -95 0 -2 -517z"/>
<path d="M2390 832 c0 -406 0 -409 23 -452 39 -74 61 -80 285 -80 212 0 228 4
276 60 16 20 28 49 32 80 l7 50 93 0 94 0 0 375 0 375 -95 0 -95 0 0 -375 0
-375 -215 0 -215 0 0 375 0 375 -95 0 -95 0 0 -408z"/>
<path d="M3690 1140 l0 -100 285 0 285 0 0 -90 0 -89 -279 -3 c-266 -3 -281
-4 -308 -24 -64 -47 -73 -74 -73 -215 l0 -129 95 0 95 0 0 -95 0 -95 271 0
c261 0 273 1 311 22 21 12 49 38 61 58 22 34 22 42 22 375 0 187 -3 352 -8
367 -11 42 -64 96 -105 108 -22 6 -167 10 -344 10 l-308 0 0 -100z m570 -560
l0 -90 -235 0 -235 0 0 90 0 90 235 0 235 0 0 -90z"/>
<path d="M5630 770 l0 -470 95 0 95 0 0 470 0 470 -95 0 -95 0 0 -470z"/>
<path d="M6240 1145 l0 -95 323 -2 322 -3 0 -95 0 -95 -187 -5 c-168 -5 -189
-7 -214 -26 -42 -31 -63 -65 -72 -113 -7 -42 -9 -44 -54 -56 -98 -25 -138 -74
-138 -173 0 -82 26 -134 80 -162 37 -19 58 -20 385 -20 l345 0 0 95 0 95 -310
0 -310 0 0 85 0 85 176 0 c143 0 183 3 211 17 43 20 80 74 89 130 6 41 8 42
55 52 102 22 139 74 139 194 0 87 -21 128 -85 164 -39 22 -45 23 -397 23
l-358 0 0 -95z"/>
<path d="M7587 1226 c-21 -8 -48 -22 -59 -33 -45 -40 -48 -64 -48 -393 l0
-310 94 0 93 0 6 -46 c5 -52 29 -89 77 -122 32 -21 41 -22 261 -22 l229 0 0
95 0 95 -285 0 -285 0 0 90 0 90 253 0 c223 0 257 3 292 19 61 27 92 70 100
136 12 91 1 286 -17 320 -23 42 -59 74 -99 85 -54 16 -566 12 -612 -4z m543
-271 l0 -85 -230 0 -230 0 0 85 0 85 230 0 230 0 0 -85z"/>
</g>
</svg>
