<?xml version="1.0" standalone="no"?>
<!DOCTYPE svg PUBLIC "-//W3C//DTD SVG 20010904//EN"
 "http://www.w3.org/TR/2001/REC-SVG-20010904/DTD/svg10.dtd">
<svg version="1.0" xmlns="http://www.w3.org/2000/svg"
 width="1428.000000pt" height="217.000000pt" viewBox="0 0 1428.000000 217.000000"
 preserveAspectRatio="xMidYMid meet">

<g transform="translate(0.000000,217.000000) scale(0.100000,-0.100000)"
fill="#000000" stroke="none">
<path d="M2175 2143 c-166 -87 -167 -310 -1 -395 60 -31 161 -23 218 18 48 33
84 90 93 147 15 88 -39 192 -119 228 -51 23 -149 24 -191 2z"/>
<path d="M3955 2143 c-166 -87 -167 -310 -1 -395 60 -31 161 -23 218 18 48 33
84 90 93 147 15 88 -39 192 -119 228 -51 23 -149 24 -191 2z"/>
<path d="M10345 2131 c-149 -86 -138 -302 19 -383 57 -29 158 -23 214 15 62
40 95 104 95 182 0 79 -29 136 -91 179 -37 26 -54 31 -115 34 -65 3 -77 0
-122 -27z"/>
<path d="M8280 1940 l0 -140 190 0 190 0 0 -530 0 -530 -200 0 -200 0 0 -135
0 -135 535 0 535 0 0 135 0 135 -187 2 -188 3 -3 668 -2 667 -335 0 -335 0 0
-140z"/>
<path d="M6910 1625 c-165 -47 -300 -200 -346 -391 -23 -94 -23 -306 -1 -394
42 -163 139 -290 269 -354 121 -59 272 -68 383 -22 46 19 113 82 136 128 25
50 54 51 63 3 4 -19 18 -48 33 -65 44 -53 69 -60 213 -60 l130 0 0 134 0 133
-42 6 c-23 3 -48 14 -55 23 -10 14 -13 110 -13 431 l0 413 -145 0 -145 0 0
-70 c0 -62 -2 -70 -19 -70 -10 0 -29 17 -44 39 -31 46 -77 84 -132 107 -57 23
-215 28 -285 9z m347 -301 c96 -59 139 -165 131 -319 -8 -138 -69 -235 -175
-275 -133 -50 -271 -1 -335 117 -50 92 -57 254 -15 354 22 54 76 109 132 136
43 21 61 24 132 20 69 -3 89 -8 130 -33z"/>
<path d="M13595 1630 c-113 -23 -243 -96 -313 -176 -53 -59 -108 -167 -127
-245 -19 -81 -19 -243 0 -334 44 -210 194 -369 398 -422 76 -20 250 -22 327
-3 88 20 175 65 230 116 54 51 111 135 95 141 -6 2 -61 32 -124 67 l-113 64
-47 -48 c-126 -130 -376 -97 -455 61 -48 97 -83 89 389 89 l415 0 0 123 c0
140 -15 210 -62 300 -67 126 -211 232 -355 262 -73 16 -193 18 -258 5z m200
-265 c33 -9 75 -26 93 -38 35 -24 76 -78 87 -114 l6 -23 -265 0 c-179 0 -266
3 -266 10 0 42 94 140 151 158 82 26 117 27 194 7z"/>
<path d="M2 1598 c2 -7 76 -264 164 -571 l159 -557 279 2 280 3 158 550 c86
303 158 558 158 568 0 15 -14 17 -153 17 l-154 0 -52 -192 c-28 -106 -89 -332
-135 -503 -61 -228 -87 -311 -99 -313 -8 -2 -17 1 -20 5 -3 5 -65 229 -137
498 -72 269 -134 493 -136 497 -3 4 -75 8 -161 8 -120 0 -154 -3 -151 -12z"/>
<path d="M1770 1470 l0 -140 180 0 180 0 -2 -292 -3 -293 -192 -3 -193 -2 0
-135 0 -135 505 0 505 0 0 135 0 135 -165 0 -165 0 0 435 0 435 -325 0 -325 0
0 -140z"/>
<path d="M3470 1470 l0 -140 220 0 220 0 0 -500 0 -501 -25 -24 c-24 -25 -24
-25 -240 -25 l-215 0 0 -135 0 -135 308 0 c300 1 308 1 352 24 49 25 84 69
100 125 6 22 10 300 10 744 l0 707 -365 0 -365 0 0 -140z"/>
<path d="M4990 1253 c0 -197 4 -394 9 -438 19 -164 86 -274 202 -333 117 -60
278 -63 389 -7 51 26 117 95 126 132 4 16 14 23 30 23 23 0 24 -2 24 -80 l0
-80 145 0 145 0 0 570 0 570 -144 0 -145 0 -3 -347 c-5 -389 -8 -415 -73 -490
-48 -56 -103 -76 -198 -72 -98 5 -143 34 -184 116 l-28 58 -3 368 -4 367 -144
0 -144 0 0 -357z"/>
<path d="M9960 1470 l0 -140 175 0 175 0 0 -295 0 -295 -190 0 -190 0 0 -135
0 -135 505 0 505 0 0 135 0 135 -167 2 -168 3 -3 433 -2 432 -320 0 -320 0 0
-140z"/>
<path d="M11590 1475 l0 -135 351 0 350 0 -3 -22 c-2 -18 -67 -53 -358 -194
l-355 -173 -3 -241 -2 -240 500 0 500 0 0 135 0 135 -372 2 c-349 3 -373 4
-376 21 -3 14 64 51 357 195 l361 177 0 238 0 237 -475 0 -475 0 0 -135z"/>
</g>
</svg>
